<?xml version="1.0" encoding="UTF-8"?>
<!DOCTYPE svg PUBLIC "-//W3C//DTD SVG 1.1//EN" "http://www.w3.org/Graphics/SVG/1.1/DTD/svg11.dtd">
<!-- Creator: CorelDRAW 2020 (64-Bit Evaluation Version) -->
<svg xmlns="http://www.w3.org/2000/svg" xml:space="preserve" width="44.7684mm" height="44.7684mm" version="1.1" style="shape-rendering:geometricPrecision; text-rendering:geometricPrecision; image-rendering:optimizeQuality; fill-rule:evenodd; clip-rule:evenodd"
viewBox="0 0 1355.24 1355.24"
 xmlns:xlink="http://www.w3.org/1999/xlink"
 xmlns:xodm="http://www.corel.com/coreldraw/odm/2003">
 <defs>
  <style type="text/css">
   <![CDATA[
    .fil0 {fill:#FEFEFE}
    .fil1 {fill:#F56D58}
   ]]>
  </style>
 </defs>
 <g id="Layer_x0020_1">
  <metadata id="CorelCorpID_0Corel-Layer"/>
  <g id="_1611760855936">
   <rect class="fil0" x="70.23" y="254.35" width="1214.78" height="846.54" rx="54.62" ry="214.57"/>
   <path class="fil1" d="M447.13 0l460.97 0c245.93,0 447.13,201.21 447.13,447.13l0 460.97c0,245.93 -201.21,447.13 -447.13,447.13l-460.97 0c-245.93,0 -447.13,-201.21 -447.13,-447.13l0 -460.97c0,-245.93 201.21,-447.13 447.13,-447.13zm-125.76 474.62c2.29,-72.78 63.14,-129.93 135.92,-127.65 72.78,2.28 129.93,63.14 127.65,135.92 -3.28,94.1 -25.77,187.11 -66.96,272.54l-0.53 1.09c35.08,-34.39 62.87,-73.68 83.19,-115.82 25.33,-52.53 39.14,-109.2 41.12,-166.08 2.29,-72.78 63.14,-129.93 135.92,-127.65 72.78,2.28 129.93,63.14 127.65,135.92 -3.28,94.1 -25.77,187.11 -66.96,272.54l-0.53 1.09c35.08,-34.39 62.87,-73.68 83.19,-115.82 25.33,-52.53 39.14,-109.2 41.12,-166.08 2.29,-72.78 63.14,-129.93 135.92,-127.65 72.78,2.28 129.93,63.14 127.65,135.92 -3.28,94.1 -25.77,187.11 -66.96,272.54 -39.74,82.41 -96.81,158.06 -170.76,221.21 -55.37,47.38 -138.67,40.9 -186.04,-14.47 -23.5,-27.47 -33.74,-61.8 -31.35,-95.22 -29.58,39.49 -63.93,76.33 -102.99,109.69 -55.37,47.38 -138.67,40.9 -186.04,-14.47 -23.5,-27.47 -33.74,-61.8 -31.35,-95.22 -29.58,39.49 -63.93,76.33 -102.99,109.69 -55.37,47.38 -138.67,40.9 -186.04,-14.47 -47.38,-55.37 -40.9,-138.67 14.47,-186.04 45.35,-38.73 80.32,-85.04 104.61,-135.42 25.33,-52.53 39.14,-109.2 41.12,-166.08z"/>
  </g>
 </g>
</svg>
