<?xml version="1.0" encoding="UTF-8"?>
<!DOCTYPE svg PUBLIC "-//W3C//DTD SVG 1.1//EN" "http://www.w3.org/Graphics/SVG/1.1/DTD/svg11.dtd">
<!-- Creator: CorelDRAW 2020 (64-Bit Evaluation Version) -->
<svg xmlns="http://www.w3.org/2000/svg" xml:space="preserve" width="125.573mm" height="44.7684mm" version="1.1" style="shape-rendering:geometricPrecision; text-rendering:geometricPrecision; image-rendering:optimizeQuality; fill-rule:evenodd; clip-rule:evenodd"
viewBox="0 0 5752.59 2050.88"
 xmlns:xlink="http://www.w3.org/1999/xlink"
 xmlns:xodm="http://www.corel.com/coreldraw/odm/2003">
 <defs>
  <style type="text/css">
   <![CDATA[
    .fil0 {fill:#FEFEFE}
    .fil1 {fill:#FEFEFE;fill-rule:nonzero}
   ]]>
  </style>
 </defs>
 <g id="Layer_x0020_1">
  <metadata id="CorelCorpID_0Corel-Layer"/>
  <g id="_1611756986528">
   <path class="fil0" d="M4378.36 0l697.59 0c372.16,0 676.65,304.49 676.65,676.65l0 697.59c0,372.16 -304.49,676.65 -676.65,676.65l-697.59 0c-372.16,0 -676.65,-304.49 -676.65,-676.65l0 -697.59c0,-372.16 304.49,-676.65 676.65,-676.65zm-190.31 718.24c3.46,-110.14 95.55,-196.62 205.68,-193.17 110.14,3.45 196.63,95.55 193.17,205.68 -4.96,142.41 -38.99,283.15 -101.33,412.44l-0.8 1.64c53.09,-52.04 95.14,-111.49 125.89,-175.26 38.33,-79.49 59.23,-165.25 62.22,-251.33 3.46,-110.14 95.55,-196.62 205.68,-193.17 110.14,3.45 196.63,95.55 193.17,205.68 -4.96,142.41 -38.99,283.15 -101.33,412.44l-0.8 1.64c53.09,-52.04 95.14,-111.49 125.89,-175.26 38.33,-79.49 59.23,-165.25 62.22,-251.33 3.46,-110.14 95.55,-196.62 205.68,-193.17 110.14,3.45 196.63,95.55 193.17,205.68 -4.96,142.41 -38.99,283.15 -101.33,412.44 -60.14,124.71 -146.51,239.2 -258.41,334.75 -83.79,71.7 -209.84,61.89 -281.54,-21.9 -35.56,-41.56 -51.07,-93.53 -47.44,-144.09 -44.76,59.76 -96.74,115.52 -155.85,165.99 -83.79,71.7 -209.84,61.89 -281.54,-21.9 -35.56,-41.56 -51.07,-93.53 -47.44,-144.09 -44.76,59.76 -96.74,115.52 -155.85,165.99 -83.79,71.7 -209.84,61.89 -281.54,-21.9 -71.69,-83.79 -61.89,-209.85 21.9,-281.54 68.63,-58.61 121.55,-128.69 158.31,-204.94 38.33,-79.49 59.23,-165.25 62.22,-251.33z"/>
   <path class="fil1" d="M1189.23 807.53c3.01,-96.02 83.29,-171.41 179.31,-168.4 96.02,3.01 171.41,83.29 168.4,179.31 -4.32,124.14 -34,246.84 -88.34,359.55 -52.42,108.72 -127.72,208.53 -225.28,291.83 -73.05,62.5 -182.93,53.96 -245.44,-19.09 -62.5,-73.05 -53.96,-182.93 19.09,-245.44 59.83,-51.09 105.96,-112.19 138.01,-178.66 33.41,-69.3 51.64,-144.06 54.25,-219.1z"/>
   <path class="fil1" d="M1374.09 1736.38c0,-88.59 71.82,-160.4 160.4,-160.4 65.92,0 122.55,39.77 147.21,96.62 23.56,-59.29 81.44,-101.21 149.12,-101.21 88.59,0 160.4,71.82 160.4,160.4 0,88.59 -71.81,160.4 -160.4,160.4 -65.92,0 -122.54,-39.77 -147.21,-96.62 -23.55,59.29 -81.44,101.21 -149.12,101.21 -88.58,0 -160.4,-71.81 -160.4,-160.4z"/>
   <path class="fil1" d="M444.83 626.34c122.81,0 234.02,49.8 314.53,130.3 80.5,80.5 130.3,191.71 130.3,314.53 0,122.81 -49.8,234.02 -130.3,314.53 -80.51,80.51 -191.72,130.3 -314.53,130.3 -122.81,0 -234.03,-49.8 -314.53,-130.3 -80.5,-80.51 -130.3,-191.72 -130.3,-314.53 0,-122.81 49.8,-234.03 130.3,-314.53 80.5,-80.5 191.71,-130.3 314.53,-130.3zm60.41 384.43c-15.44,-15.45 -36.8,-25 -60.41,-25 -23.6,0 -44.96,9.55 -60.4,25 -15.44,15.44 -25,36.8 -25,60.4 0,23.6 9.56,44.96 25,60.41 15.44,15.44 36.8,24.99 60.4,24.99 23.61,0 44.96,-9.55 60.41,-24.99 15.44,-15.44 24.99,-36.8 24.99,-60.41 0,-23.6 -9.55,-44.96 -24.99,-60.4z"/>
   <path class="fil1" d="M1644.79 365.56c-17.83,-97.31 46.6,-190.67 143.91,-208.49 97.32,-17.83 190.67,46.6 208.5,143.91 33.98,182.22 41.64,369.96 20.64,557.36 -20.44,182.43 -67.54,364.43 -143.36,540.62 -39.16,91.11 -144.77,133.23 -235.88,94.07 -91.11,-39.15 -133.23,-144.77 -94.07,-235.88 61.91,-143.88 100.23,-291.33 116.68,-438.13 17.18,-153.28 11.07,-306.01 -16.43,-453.46z"/>
   <path class="fil1" d="M2102.89 807.53c3.01,-96.02 83.29,-171.41 179.31,-168.4 96.02,3.01 171.41,83.29 168.4,179.31 -4.32,124.14 -34,246.84 -88.34,359.55 -52.42,108.72 -127.72,208.53 -225.28,291.83 -73.05,62.5 -182.93,53.96 -245.44,-19.09 -62.5,-73.05 -53.96,-182.93 19.09,-245.44 59.83,-51.09 105.97,-112.19 138.01,-178.66 33.41,-69.3 51.64,-144.06 54.25,-219.1z"/>
   <path class="fil1" d="M2525.55 807.53c3.01,-96.02 83.3,-171.41 179.31,-168.4 96.02,3.01 171.41,83.29 168.4,179.31 -4.32,124.14 -34,246.84 -88.34,359.55 -52.42,108.72 -127.72,208.53 -225.28,291.83 -73.05,62.5 -182.94,53.96 -245.44,-19.09 -62.5,-73.05 -53.95,-182.93 19.09,-245.44 59.83,-51.09 105.96,-112.19 138.01,-178.66 33.41,-69.3 51.64,-144.06 54.24,-219.1z"/>
   <path class="fil1" d="M2948.21 807.53c3.01,-96.02 83.29,-171.41 179.31,-168.4 96.02,3.01 171.41,83.29 168.4,179.31 -4.32,124.14 -34,246.84 -88.34,359.55 -52.43,108.72 -127.72,208.53 -225.28,291.83 -73.05,62.5 -182.93,53.96 -245.44,-19.09 -62.5,-73.05 -53.96,-182.93 19.09,-245.44 59.83,-51.09 105.96,-112.19 138.01,-178.66 33.41,-69.3 51.64,-144.06 54.25,-219.1z"/>
   <path class="fil1" d="M136.26 395.7c0,-88.59 71.81,-160.4 160.4,-160.4 65.92,0 122.54,39.77 147.21,96.62 23.56,-59.29 81.44,-101.21 149.12,-101.21 88.59,0 160.4,71.82 160.4,160.4 0,88.59 -71.81,160.4 -160.4,160.4 -65.92,0 -122.54,-39.77 -147.21,-96.62 -23.56,59.29 -81.44,101.21 -149.12,101.21 -88.59,0 -160.4,-71.81 -160.4,-160.4z"/>
  </g>
 </g>
</svg>
